<svg width="24" height="24" viewBox="0 0 24 24" fill="none" xmlns="http://www.w3.org/2000/svg">
<g clip-path="url(#clip0)">
<path fill-rule="evenodd" clip-rule="evenodd" d="M12.0036 0C18.6283 0 24.0072 5.37174 24.0072 12.0036C24.0072 18.6283 18.6355 24.0072 12.0036 24.0072C5.37894 24.0072 0 18.6355 0 12.0036C0 5.37894 5.37174 0 12.0036 0ZM9.06571 7.62556C9.47615 7.62556 9.85059 7.66157 10.189 7.73357C10.5275 7.80558 10.8155 7.92799 11.0603 8.08641C11.2979 8.25203 11.4851 8.46805 11.622 8.74168C11.7516 9.0081 11.8164 9.35374 11.8164 9.74978C11.8164 10.1818 11.7156 10.5419 11.5212 10.8371C11.3195 11.1251 11.0315 11.3627 10.6427 11.55C11.1755 11.7012 11.5644 11.9676 11.8236 12.3492C12.0828 12.7309 12.2124 13.1917 12.2124 13.7318C12.2124 14.171 12.126 14.5455 11.9604 14.8623C11.7876 15.1791 11.5644 15.4383 11.2835 15.64C11.0027 15.8416 10.6715 15.9928 10.3042 16.0864C9.9442 16.18 9.56976 16.2304 9.18092 16.2304H5.0117V7.63276H9.06571V7.62556ZM14.135 8.31683H17.6202V9.16652H14.135V8.31683ZM14.9127 14.7255C15.1719 14.9775 15.5392 15.0999 16.0216 15.0999C16.3672 15.0999 16.6697 15.0135 16.9145 14.8407C17.1593 14.6679 17.3105 14.4806 17.3681 14.2862H18.8731C18.6283 15.0351 18.261 15.568 17.7642 15.892C17.2673 16.216 16.6625 16.3744 15.964 16.3744C15.4743 16.3744 15.0351 16.2952 14.6391 16.1368C14.243 15.9784 13.9118 15.7552 13.631 15.4671C13.3573 15.1791 13.1485 14.8335 12.9973 14.4302C12.8533 14.027 12.7741 13.5806 12.7741 13.1053C12.7741 12.6373 12.8533 12.2052 13.0045 11.802C13.1629 11.3987 13.3717 11.0531 13.6598 10.7579C13.9406 10.4626 14.279 10.2322 14.6679 10.0666C15.0567 9.89379 15.4888 9.81458 15.9712 9.81458C16.4969 9.81458 16.9577 9.91539 17.3537 10.1242C17.7498 10.3258 18.0738 10.6067 18.3258 10.9523C18.5779 11.2979 18.7579 11.694 18.8731 12.1332C18.9883 12.5725 19.0243 13.0333 18.9955 13.523H14.5023C14.5023 14.0126 14.6679 14.4806 14.9271 14.7255H14.9127ZM16.8785 11.4563C16.6769 11.2331 16.3312 11.1107 15.9136 11.1107C15.64 11.1107 15.4167 11.1539 15.2367 11.2475C15.0567 11.3411 14.9127 11.4563 14.8047 11.5932C14.6967 11.73 14.6175 11.874 14.5743 12.0324C14.5311 12.1836 14.5023 12.3204 14.4951 12.4428H17.2817C17.2385 12.0036 17.0873 11.6868 16.8857 11.4563H16.8785ZM8.82808 11.0963C9.16652 11.0963 9.44014 11.0171 9.66337 10.8587C9.87939 10.7003 9.9874 10.441 9.9874 10.081C9.9874 9.87939 9.9514 9.71377 9.87939 9.58416C9.80738 9.45455 9.70657 9.35374 9.58416 9.28173C9.46175 9.20972 9.32493 9.15932 9.16652 9.13051C9.0081 9.10171 8.84969 9.08731 8.68407 9.08731H6.91269V11.0963H8.82808ZM8.92889 14.7543C9.11611 14.7543 9.28893 14.7399 9.45455 14.6967C9.62736 14.6607 9.77138 14.6031 9.90099 14.5167C10.0234 14.4302 10.1314 14.3222 10.2106 14.171C10.2898 14.027 10.3258 13.8398 10.3258 13.6166C10.3258 13.1773 10.2034 12.8605 9.9514 12.6661C9.70657 12.4788 9.37534 12.3852 8.9649 12.3852H6.91269V14.7543H8.93609V14.7615L8.92889 14.7543Z" fill="black"/>
</g>
<defs>
<clipPath id="clip0">
<rect width="24" height="24" fill="white"/>
</clipPath>
</defs>
</svg>
