<svg width="24" height="24" viewBox="0 0 24 24" fill="none" xmlns="http://www.w3.org/2000/svg">
<g clip-path="url(#clip0)">
<path fill-rule="evenodd" clip-rule="evenodd" d="M12.0036 0C18.6283 0 24.0072 5.37174 24.0072 12.0036C24.0072 18.6283 18.6355 24.0072 12.0036 24.0072C5.37894 24.0072 0 18.6355 0 12.0036C0 5.37894 5.37174 0 12.0036 0ZM10.4554 9.62016H12.9181V10.8803H12.9541C13.2997 10.261 14.135 9.62016 15.3879 9.62016C17.9874 9.62016 18.4698 11.2403 18.4698 13.3429V17.6346H15.8992V13.8326C15.8992 12.9253 15.8776 11.7588 14.5599 11.7588C13.2205 11.7588 13.0189 12.7453 13.0189 13.7678V17.6346H10.4482V9.62016H10.4554ZM8.67687 7.39514C8.67687 8.12961 8.07921 8.73447 7.33753 8.73447C6.60306 8.73447 5.9982 8.13681 5.9982 7.39514C5.9982 6.66067 6.59586 6.05581 7.33753 6.05581C8.07201 6.05581 8.67687 6.65347 8.67687 7.39514ZM6.0054 9.62016H8.67687V17.6346H6.0054V9.62016Z" fill="black"/>
</g>
<defs>
<clipPath id="clip0">
<rect width="24" height="24" fill="white"/>
</clipPath>
</defs>
</svg>
