<svg width="24" height="24" viewBox="0 0 24 24" fill="none" xmlns="http://www.w3.org/2000/svg">
<g clip-path="url(#clip0)">
<path fill-rule="evenodd" clip-rule="evenodd" d="M12.0036 0C18.6283 0 24.0072 5.37174 24.0072 12.0036C24.0072 18.6283 18.6355 24.0072 12.0036 24.0072C5.37894 24.0072 0 18.6355 0 12.0036C0 5.37894 5.37174 0 12.0036 0ZM18.4843 7.9784C18.009 8.19442 17.4978 8.33123 16.9577 8.39604C17.505 8.06481 17.9298 7.54636 18.1242 6.92709C17.613 7.22952 17.0369 7.45275 16.4392 7.57516C15.9496 7.05671 15.2655 6.73987 14.4951 6.73987C13.0261 6.73987 11.838 7.92799 11.838 9.39694C11.838 9.60576 11.8596 9.80738 11.9028 10.0018C9.69217 9.88659 7.73357 8.83528 6.42304 7.22232C6.18542 7.62556 6.06301 8.08641 6.06301 8.56166C6.06301 9.48335 6.53105 10.297 7.24393 10.7723C6.80468 10.7579 6.40144 10.6355 6.0414 10.441V10.477C6.0414 11.766 6.9559 12.8389 8.17282 13.0837C7.9496 13.1413 7.71197 13.1773 7.47435 13.1773C7.30153 13.1773 7.13591 13.1629 6.9703 13.1269C7.30873 14.1854 8.28803 14.9487 9.45455 14.9775C8.54005 15.6904 7.40234 16.1152 6.14942 16.1152C5.93339 16.1152 5.72457 16.1008 5.51575 16.0792C6.69667 16.8353 8.09361 17.2745 9.59136 17.2745C14.4806 17.2745 17.1593 13.2205 17.1593 9.70657C17.1593 9.59136 17.1593 9.47615 17.1521 9.36094C17.6706 8.9865 18.1242 8.51845 18.477 7.9856L18.4843 7.9784Z" fill="black"/>
</g>
<defs>
<clipPath id="clip0">
<rect width="24" height="24" fill="white"/>
</clipPath>
</defs>
</svg>
